<?xml version="1.0" encoding="UTF-8"?>
<svg version="1.1" xmlns="http://www.w3.org/2000/svg" width="512" height="512">
<path d="M0 0 C6.83520923 1.91190392 12.4415329 4.76548395 18.375 8.625 C19.61890503 9.42514526 19.61890503 9.42514526 20.88793945 10.24145508 C42.47929722 24.32277536 57.1606297 43.00408366 62.8125 68.4375 C63.22958224 70.62104819 63.62823997 72.80828041 64 75 C64.13148438 75.77085938 64.26296875 76.54171875 64.3984375 77.3359375 C67.51517955 98.64771421 61.14373299 120.47230079 49 138 C45.64136901 142.30354498 41.85491054 146.14508946 38 150 C37.44183594 150.64066406 36.88367188 151.28132812 36.30859375 151.94140625 C24.76880307 164.92743702 5.95632802 172.1365035 -10.5859375 175.45703125 C-12.93834997 175.76011437 -12.93834997 175.76011437 -14 177 C12.8772588 180.78514587 39.29979974 176.66907219 61.5390625 160.109375 C63.44149461 158.4705758 65.23625385 156.78590377 67 155 C67.825 154.21625 68.65 153.4325 69.5 152.625 C70.325 151.75875 71.15 150.8925 72 150 C72.59425781 149.40058594 73.18851562 148.80117187 73.80078125 148.18359375 C87.9138801 133.30318078 94.18297869 113.92892734 97 94 C131.55088306 120.87290905 152.9318702 173.27601598 163.375 214.375 C163.7148291 215.70797119 163.7148291 215.70797119 164.06152344 217.06787109 C164.77370104 220.03492079 165.400506 223.00804817 166 226 C166.19595764 226.95282364 166.19595764 226.95282364 166.39587402 227.92489624 C169.09659327 241.42551812 169.52741904 254.7620735 169.50097656 268.50366211 C169.50000785 272.03388072 169.54171849 275.56189151 169.5859375 279.09179688 C169.70482029 301.88744754 165.77680796 323.5799332 158 345 C157.76168457 345.66 157.52336914 346.32 157.27783203 347 C150.15293761 366.40396778 140.26626274 387.0263367 127 403 C126.67 403 126.34 403 126 403 C126.01571045 402.12601562 126.0314209 401.25203125 126.04760742 400.3515625 C126.33281409 381.98280921 125.98302447 364.1916891 123 346 C122.72027344 347.05574219 122.44054687 348.11148437 122.15234375 349.19921875 C111.96204546 387.13146343 96.30553569 421.30175538 69 450 C68.49484863 450.53238281 67.98969727 451.06476563 67.46923828 451.61328125 C56.71548937 462.87215456 45.22441236 472.70850336 32 481 C32.65046997 477.23083841 34.37212529 474.62490926 36.4375 471.4375 C50.00506749 449.81448044 59.17101953 426.83907256 65 402 C64.67128906 402.51046875 64.34257812 403.0209375 64.00390625 403.546875 C48.95245136 426.55235077 30.41517582 447.91690327 8 464 C7.163479 464.61101562 7.163479 464.61101562 6.31005859 465.234375 C-25.11732326 487.9924447 -64.14471771 502.32880506 -103 504 C-100.3570142 500.88336083 -97.02312871 499.35461577 -93.4375 497.5625 C-74.06339151 487.54380393 -56.33599142 474.07493322 -41.375 458.21484375 C-40 457 -40 457 -38 457 C-37.64228516 456.1646875 -37.64228516 456.1646875 -37.27734375 455.3125 C-35.71113111 452.47703247 -33.76526991 450.37277022 -31.5625 448 C-28.87341115 445.09383478 -26.31438774 442.21484084 -24 439 C-24.5264209 439.17740723 -25.0528418 439.35481445 -25.59521484 439.53759766 C-39.74059682 444.28149456 -53.91762316 448.73131166 -68.5 451.9375 C-69.4482666 452.14874512 -70.3965332 452.35999023 -71.37353516 452.57763672 C-76.35722104 453.6305533 -80.90744031 454.23084405 -86 454 C-82.23263691 450.11890519 -78.26193911 446.60530863 -74.125 443.125 C-55.16208522 426.94974138 -41.21618914 407.05206079 -34 383 C-33.79117187 382.3095459 -33.58234375 381.6190918 -33.3671875 380.90771484 C-28.23973004 363.0792532 -28.0305286 343.07045897 -32 325 C-32.13986328 325.55236328 -32.27972656 326.10472656 -32.42382812 326.67382812 C-35.67635876 339.29699363 -39.62152783 350.62742994 -46 362 C-46.48082031 362.89589844 -46.96164062 363.79179687 -47.45703125 364.71484375 C-62.89715003 392.16888781 -89.77807864 412.83252387 -119.93359375 421.44921875 C-140.57509538 427.09256061 -163.18034136 428.95168235 -184 423 C-185.59238906 422.58180709 -187.18484156 422.16385567 -188.77734375 421.74609375 C-199.90405244 418.71307937 -209.9050245 414.55505635 -220 409 C-220 408.34 -220 407.68 -220 407 C-214.72 405.35 -209.44 403.7 -204 402 C-205.155 400.948125 -206.31 399.89625 -207.5 398.8125 C-219.91913766 386.30543924 -226.27430713 369.60689401 -226.24658203 352.16186523 C-226.08498493 342.4317274 -223.39046799 334.46937817 -217 327 C-209.04498451 319.52969871 -202.34061727 317.56651704 -191.4921875 317.75 C-185.76981946 318.15965498 -181.01546288 318.98453712 -176.875 323.125 C-175.18951061 328.66303657 -176.39942299 333.80487741 -178.5625 339.0625 C-180.14507507 343.06641493 -180.96295828 346.73890963 -180 351 C-176.19122775 359.46874739 -169.41343451 364.20634866 -161.125 367.875 C-159.14424638 368.52513789 -159.14424638 368.52513789 -157 369 C-156.12085938 369.20882813 -155.24171875 369.41765625 -154.3359375 369.6328125 C-151.11879141 370.04935759 -149.08165007 370.0482109 -146 369 C-139.58406808 362.27486654 -136.40695057 352.70757338 -133.2265625 344.1171875 C-132 341 -132 341 -130 338 C-128.81990204 340.36019593 -128.70232315 342.16095717 -128.46484375 344.7890625 C-128.37783203 345.73007812 -128.29082031 346.67109375 -128.20117188 347.640625 C-128.11416016 348.62546875 -128.02714844 349.6103125 -127.9375 350.625 C-127.84662109 351.61757813 -127.75574219 352.61015625 -127.66210938 353.6328125 C-127.43781564 356.08823868 -127.21726893 358.54394389 -127 361 C-119.51204305 353.63982389 -114.18531634 345.9285052 -109.3828125 336.625 C-108 334 -108 334 -107 333 C-99.72080057 332.79780002 -93.80790183 334.63024529 -88 339 C-85.7938258 341.19707657 -83.84284877 343.4922803 -82 346 C-88.3672477 306.52306429 -109.0254893 270.05864126 -141.4375 246.125 C-174.13456691 222.74057863 -214.64198724 212.14482759 -254.6003418 218.02636719 C-263.50884186 219.03541428 -263.50884186 219.03541428 -270.33984375 224.01953125 C-271.2133489 225.27860184 -272.07895545 226.54318079 -272.9375 227.8125 C-278.71840302 236.28017954 -278.71840302 236.28017954 -282 239 C-282.99 239 -283.98 239 -285 239 C-285.90238747 236.29283758 -286.11851302 234.76223232 -286.09765625 231.98828125 C-286.09443359 231.23095703 -286.09121094 230.47363281 -286.08789062 229.69335938 C-286.07532227 228.51483398 -286.07532227 228.51483398 -286.0625 227.3125 C-286.05798828 226.51521484 -286.05347656 225.71792969 -286.04882812 224.89648438 C-286.0370585 222.93095743 -286.01912348 220.96546915 -286 219 C-286.48210937 219.62648437 -286.96421875 220.25296875 -287.4609375 220.8984375 C-288.40839844 222.12433594 -288.40839844 222.12433594 -289.375 223.375 C-290.00148438 224.18710938 -290.62796875 224.99921875 -291.2734375 225.8359375 C-293 228 -293 228 -295 230 C-295.99 230 -296.98 230 -298 230 C-298 224.39 -298 218.78 -298 213 C-299.98 212.67 -301.96 212.34 -304 212 C-312.80344337 207.6951013 -319.00958157 201.18890084 -322.25 192 C-324.58765095 185.82580563 -327.88634246 183.33662883 -333.33203125 179.81640625 C-337.44887614 177.01357627 -340.75313444 173.49373112 -343 169 C-344.31262168 157.60405722 -342.56635753 149.59605558 -336 140 C-331.48567179 134.81658386 -325.72525531 129.92332112 -319 128 C-316.875 127.94140625 -316.875 127.94140625 -314.5625 128.0625 C-296.40132866 128.75779752 -275.8960005 116.91727218 -263 105 C-258.33216355 100.44107671 -253.73813838 95.81051287 -249.21630859 91.10693359 C-240.70025957 82.34345986 -231.50222723 74.78592638 -220.5625 69.25 C-219.47231567 68.69070801 -219.47231567 68.69070801 -218.36010742 68.12011719 C-172.52593218 44.98875694 -111.44626873 47.22309806 -63.43359375 62.46484375 C-54.15098519 65.58521322 -45.07199976 69.32092705 -36 73 C-36.16081055 72.40993164 -36.32162109 71.81986328 -36.48730469 71.21191406 C-38.34746557 63.18664853 -38.05419152 53.26310758 -34 46 C-33.48373047 44.948125 -33.48373047 44.948125 -32.95703125 43.875 C-28.84303565 36.58373396 -22.35449506 32.65142506 -15.58691406 28.07666016 C-7.86295662 22.83625211 -3.49327256 17.15197184 -1.25 7.91015625 C-0.76206181 5.27732312 -0.33828801 2.65581336 0 0 Z " fill="#DF214E" transform="translate(343,8)"/>
<path d="M0 0 C7.71435001 3.54310478 14.3190749 8.7104271 17.87890625 16.59375 C18.83366616 19.37580162 19.20525688 21.05868838 18.6953125 23.97265625 C15.18468297 27.80595394 11.26216695 31.05707594 7.2578125 34.34765625 C-1.18149369 41.41235159 -7.51320415 47.65373871 -9.3046875 58.97265625 C-9.37121605 61.24261044 -9.39012501 63.5143432 -9.3671875 65.78515625 C-9.35365234 67.52732422 -9.35365234 67.52732422 -9.33984375 69.3046875 C-9.32824219 70.18511719 -9.31664062 71.06554687 -9.3046875 71.97265625 C-9.9646875 71.97265625 -10.6246875 71.97265625 -11.3046875 71.97265625 C-11.95464047 70.5578749 -12.59947472 69.14074138 -13.2421875 67.72265625 C-13.60183594 66.93375 -13.96148437 66.14484375 -14.33203125 65.33203125 C-17.62252135 57.35028016 -17.005975 50.14040793 -13.9296875 42.16015625 C-12.70793788 39.22724268 -11.45606218 36.31273087 -10.1640625 33.41015625 C-7.61991037 26.19401565 -9.11146063 18.92202028 -12.1640625 12.12890625 C-14.50103106 7.71107528 -17.73504122 4.41481517 -21.3046875 0.97265625 C-15.06460817 -2.82033315 -6.73620804 -2.09411668 0 0 Z " fill="#DF214E" transform="translate(312.3046875,2.02734375)"/>
</svg>
